<?xml version="1.0" encoding="UTF-8"?>
<svg id="_МАльовка" data-name="МАльовка" xmlns="http://www.w3.org/2000/svg" viewBox="0 0 1147.33 1094.9">
  <defs>
    <style>
      .cls-1, .cls-2 {
        fill: none;
        stroke: #000;
        stroke-miterlimit: 10;
        stroke-width: 15px;
      }

      .cls-2 {
        stroke-linecap: round;
      }
    </style>
  </defs>
  <path class="cls-1" d="M750.32,288.9c-33.33-3.25-71.46-5.09-111.95-5.09-130.84,0-236.9,19.24-236.9,42.97s106.06,42.97,236.9,42.97c32.08,0,62.66-1.16,90.56-3.26h.01c8.69-.64,17.1-1.39,25.23-2.22,20.03-2.03,38.25-4.59,54.13-7.56,35.71-6.66,59.59-15.41,65.52-25.15h.01c.95-1.58,1.44-3.16,1.44-4.78,0-10.1-19.2-19.39-51.36-26.72"/>
  <path class="cls-1" d="M641.5,888.55c1.16,6.29-4.61,11.68-10.8,10.1-16.3-4.15-45.21-14.28-66.48-37.04-31.27-33.45-34.22-81.5-34.22-81.5,0,0,47.75,6.17,79.02,39.62,21.28,22.76,29.44,52.28,32.49,68.82Z"/>
  <path class="cls-1" d="M678.29,869.44c-4.2,1.05-8.08-2.61-7.28-6.86,2.1-11.19,7.7-31.14,22.15-46.49,21.24-22.56,53.57-26.61,53.57-26.61,0,0-2.12,32.51-23.36,55.07-14.45,15.35-34.04,22.13-45.08,24.9Z"/>
  <path class="cls-2" d="M638.69,896.69s-65.75-55.42-76.59-80.45"/>
  <path class="cls-2" d="M672.36,867.55s17.75-25.25,36.46-36.86"/>
  <path class="cls-2" d="M557.03,90.27h0c-9.01,20.69-8.8,44.24.59,64.77l2.76,6.05c9.15,20.02,9.59,42.93,1.22,63.28l-2.8,6.81"/>
  <path class="cls-2" d="M698.27,90.27h0c-9.01,20.69-8.8,44.24.59,64.77l2.76,6.05c9.15,20.02,9.59,42.93,1.22,63.28l-2.8,6.81"/>
  <path class="cls-2" d="M626.99,66.44h0c-12.06,27.69-11.77,59.21.78,86.68l3.7,8.09c12.24,26.78,12.83,57.45,1.63,84.68l-3.75,9.11"/>
  <path class="cls-2" d="M465.74,964.56c51,21.69,109.9,34.06,172.63,34.06s121.63-12.37,172.63-34.06"/>
  <line class="cls-2" x1="648.59" y1="468.03" x2="648.58" y2="468.03"/>
  <path class="cls-2" d="M465.74,964.56s-14.63-478.02-64.27-637.78"/>
  <path class="cls-2" d="M811,964.56s14.63-478.02,64.27-637.78"/>
  <path class="cls-1" d="M575.48,416.75c19.49-1.37,40.7-2.13,62.88-2.13,27.43,0,53.37,1.16,76.42,3.21"/>
  <path class="cls-1" d="M643.75,477.48h0c19.34-.1,37.88-.78,55.12-1.95,8.76-.59,17.19-1.31,25.21-2.14,21.45-2.21,40.03-5.24,54.49-8.84,17.35-4.32,28.78-9.47,32.11-15.06.68-1.11,1.02-2.25,1.03-3.39h0v-.04c0-5.78-8.62-11.21-23.67-15.87"/>
  <path class="cls-1" d="M560.16,417.99c-56.45,5.18-95.15,15.8-95.15,28.07,0,1.18.36,2.33,1.06,3.48,0,0,0,0,0,.01,5.61,9.21,33.15,17.22,72.94,22.28h.01"/>
  <path class="cls-2" d="M512.04,912.78c37.32,15.87,80.42,24.92,126.33,24.92s89.01-9.05,126.33-24.92"/>
  <path class="cls-2" d="M512.04,912.78s-10.7-349.81-47.04-466.72"/>
  <path class="cls-2" d="M764.69,912.78s10.7-349.81,47.04-466.72"/>
  <path class="cls-1" d="M606.74,488.54c19.82,18.25,31.61,33.65,28.14,38.06-3.47,4.41-21.21-3.41-43.64-18.36,1.11,26.93-1.44,46.15-7.01,46.82-5.57.67-12.59-17.4-17.87-43.83-18.26,19.81-33.65,31.6-38.07,28.14-4.41-3.47,3.41-21.21,18.36-43.63-26.93,1.1-46.15-1.45-46.82-7.02s17.41-12.58,43.84-17.86c-19.82-18.26-31.61-33.66-28.14-38.07s21.22,3.4,43.64,18.35c-1.11-26.92,1.44-46.14,7.02-46.81s12.59,17.41,17.87,43.83c18.26-19.82,33.66-31.61,38.07-28.14,4.41,3.47-3.41,21.21-18.36,43.64,26.93-1.11,46.15,1.44,46.81,7.01.67,5.57-17.41,12.59-43.83,17.88Z"/>
  <path class="cls-1" d="M842.11,511.94c39.43-24.53,78.96-30.06,102.55-10.42,35.58,29.63,21.41,105.3-31.65,169.01-27.72,33.29-60.56,56.73-90.69,67.3"/>
  <line class="cls-1" x1="737.69" y1="822.93" x2="737.68" y2="822.93"/>
  <path class="cls-1" d="M853.81,426.14c-4.47,51.35,66.24-13.77,123.53,36.94,52.18,46.19,39.19,153.74-40.68,249.65-36.26,43.55-112.1,80.67-120.16,124.47"/>
  <line class="cls-1" x1="697.88" y1="757.39" x2="848.08" y2="212.33"/>
  <line class="cls-1" x1="626.62" y1="737.75" x2="776.82" y2="192.69"/>
  <path class="cls-1" d="M626.62,737.75c-3.92,14.22,8.85,30.15,28.53,35.58,19.69,5.42,38.81-1.72,42.73-15.94"/>
  <path class="cls-1" d="M647.85,771c-5.69-6.39.41-22.43,3.86-34.94,44.17-160.27,143.19-519.59,143.19-519.59"/>
  <path class="cls-1" d="M776.66,193.3c3.21-11.65,21.76-16.68,41.44-11.26,19.68,5.42,33.03,19.25,29.82,30.9-1.93,7-9.41,11.61-19.34,12.99-3.1.44-6.45.55-9.94.33"/>
  <path class="cls-2" d="M825.11,205.48c-2.59-1.7-5.7-3.12-9.16-4.08-11.02-3.04-21.41-.22-23.2,6.3s5.68,14.26,16.7,17.3c1.29.36,2.56.63,3.82.82,4.08.65,9.84.99,22.68-1.69"/>
</svg>