<?xml version="1.0" encoding="UTF-8"?>
<svg id="_Келих2" data-name="Келих2" xmlns="http://www.w3.org/2000/svg" viewBox="0 0 934.84 995.02">
  <defs>
    <style>
      .cls-1, .cls-2 {
        stroke-miterlimit: 10;
      }

      .cls-1, .cls-2, .cls-3, .cls-4 {
        fill: none;
        stroke: #000;
        stroke-width: 15px;
      }

      .cls-2, .cls-4 {
        stroke-linecap: round;
      }

      .cls-3, .cls-4 {
        stroke-linejoin: round;
      }
    </style>
  </defs>
  <ellipse class="cls-1" cx="278.55" cy="283.45" rx="236.9" ry="42.97"/>
  <ellipse class="cls-1" cx="278.55" cy="401.58" rx="173.36" ry="31.44"/>
  <path class="cls-1" d="M435.77,485.62h0c0,.66-.1,1.31-.3,1.96-5.04,16.46-73.45,29.49-157.1,29.49s-148.84-12.42-156.64-28.34c-.5-1.02-.76-2.05-.76-3.1,0-.35.03-.71.09-1.06"/>
  <path class="cls-4" d="M451.9,401.58c-32.09,133.59-40.16,332.87-46.34,439.95-1.58,13.99-6.24,24.32-18.89,31.81-12.02,7.47-34.6,12.75-51.08,15.36-32.33,5.43-67.41,6.3-100.2,2.03-20.56-2.77-40.56-6.1-58.77-14.05-9.95-4.44-18.51-11.28-22.2-21.61-4.8-11.97-4.16-36.97-5.4-54.66-4.98-96.34-11.34-195.47-24.32-291.34-4.79-35.63-12.21-73.66-19.67-107.49"/>
  <path class="cls-3" d="M227.67,811.84l-8.94-14.35c-7.69-12.35-18.02-22.72-30.17-30.44-13.15,18.53-10.73,46.58,7.16,67.11,19.51,22.38,50.37,27.76,70.76,13.01-11.26-5.62-21.34-13.41-29.65-22.94-3.36-3.85-6.43-7.99-9.17-12.39Z"/>
  <path class="cls-3" d="M205.01,753.36c11.34,7.6,21.01,17.56,28.29,29.29l8.77,14.12c9.74,15.7,23.69,28.12,40.04,36.02,11.47-18.5,8.56-45.16-8.63-64.89-18.79-21.55-48.11-27.34-68.47-14.55Z"/>
  <g>
    <path class="cls-3" d="M302.57,656.54l16.6-15.52c14.28-13.35,25.27-29.68,32.28-47.71-27.87-12.51-64.22-2.02-86.63,26.93-24.43,31.56-23.49,73.65,1.27,96.7,4.48-16.31,12.12-31.63,22.53-45.07,4.21-5.43,8.86-10.56,13.95-15.32Z"/>
    <path class="cls-3" d="M369.57,606.22c-7.07,16.94-17.68,32.27-31.25,44.93l-16.34,15.25c-18.17,16.94-30.91,38.57-37.07,62.18,27.38,10.3,61.78-.48,83.31-28.29,23.52-30.39,23.52-70.56,1.35-94.07Z"/>
  </g>
  <path class="cls-2" d="M205.84,31.83h0c-9.01,20.69-8.8,44.24.59,64.77l2.76,6.05c9.15,20.02,9.59,42.93,1.22,63.28l-2.8,6.81"/>
  <path class="cls-2" d="M347.08,31.83h0c-9.01,20.69-8.8,44.24.59,64.77l2.76,6.05c9.15,20.02,9.59,42.93,1.22,63.28l-2.8,6.81"/>
  <path class="cls-2" d="M275.79,8h0c-12.06,27.69-11.77,59.21.78,86.68l3.7,8.09c12.24,26.78,12.83,57.45,1.63,84.68l-3.75,9.11"/>
  <path class="cls-4" d="M41.61,284.39c10.2,46.2,20.32,98.14,26.87,146.82,17.74,130.94,26.43,266.34,33.23,397.93,1.69,24.17.81,58.31,7.37,74.66,5.04,14.12,16.73,23.45,30.32,29.52,24.88,10.87,52.2,15.41,80.28,19.2,44.79,5.83,92.71,4.64,136.87-2.78,22.51-3.56,53.36-10.77,69.77-20.98,17.28-10.23,23.64-24.34,25.8-43.44,1.53-26.59,3.15-57.35,5.05-90.97"/>
  <path class="cls-4" d="M495.92,383.19c5.66-34.79,12.12-68.07,19.5-98.8"/>
  <path class="cls-4" d="M483.69,469.66c-9.26,75.3-15.67,153.51-20.49,225.62h0"/>
  <path class="cls-1" d="M483.68,469.66c39.43-24.53,77.53-30.17,101.12-10.53,35.58,29.63,21.41,105.3-31.65,169.01-27.72,33.29-59.83,56.57-89.96,67.14"/>
  <path class="cls-4" d="M495.91,383.19c-5.72,50.87,64.27-13.21,121.56,37.5,52.18,46.19,39.19,153.74-40.68,249.65-36.26,43.55-111.58,80.2-119.64,124.01"/>
</svg>