<?xml version="1.0" encoding="UTF-8"?>
<svg id="_Келих3" data-name="Келих3" xmlns="http://www.w3.org/2000/svg" viewBox="0 0 934.84 995.02">
  <defs>
    <style>
      .cls-1 {
        stroke-width: 12px;
      }

      .cls-1, .cls-2, .cls-3, .cls-4 {
        fill: none;
        stroke: #000;
      }

      .cls-1, .cls-3, .cls-4 {
        stroke-linecap: round;
      }

      .cls-1, .cls-4 {
        stroke-linejoin: round;
      }

      .cls-2, .cls-3 {
        stroke-miterlimit: 10;
      }

      .cls-2, .cls-3, .cls-4 {
        stroke-width: 15px;
      }
    </style>
  </defs>
  <path class="cls-2" d="M374.16,104.97c-32.3-2.99-68.9-4.68-107.67-4.68-130.84,0-236.91,19.24-236.91,42.97s106.07,42.97,236.91,42.97c30.37,0,59.41-1.04,86.09-2.92,8.66-.62,17.07-1.32,25.2-2.11,19.86-1.92,38.04-4.34,54.02-7.17,44.17-7.8,71.59-18.7,71.59-30.77,0-10.53-20.85-20.17-55.49-27.64"/>
  <path class="cls-2" d="M244.19,230.2s0-.01,0,0c-9.76.23-19.26.6-28.44,1.11"/>
  <path class="cls-2" d="M151.87,237.8h-.01c-36.02,5.76-58.74,14.19-58.74,23.59s20.88,17.12,54.33,22.86"/>
  <path class="cls-2" d="M244.32,292.58h.01c7.26.16,14.65.25,22.16.25,19.74,0,38.71-.6,56.38-1.7,8.72-.54,17.13-1.21,25.16-1.99,21.09-2.04,39.57-4.85,54.32-8.22,23.48-5.37,37.5-12.15,37.5-19.53,0-6.25-10.07-12.09-27.44-16.98"/>
  <path class="cls-2" d="M160.4,236.52s.01,0,.01,0c10.88-1.54,22.81-2.84,35.54-3.87"/>
  <path class="cls-2" d="M259.87,229.96c2.2,0,4.4-.02,6.62-.02,25.86,0,50.4,1.03,72.44,2.87"/>
  <path class="cls-2" d="M415.77,898.06c15.3,4.69,24.08,10.16,24.08,16,0,17.37-77.62,31.44-173.36,31.44s-173.37-14.07-173.37-31.44c0-5.9,8.98-11.43,24.6-16.15"/>
  <line class="cls-2" x1="341.12" y1="503.12" x2="461.42" y2="66.59"/>
  <line class="cls-2" x1="269.86" y1="483.49" x2="390.16" y2="46.95"/>
  <path class="cls-2" d="M269.86,483.49c-3.14,11.39,10.26,25.03,29.94,30.45,19.69,5.42,38.18.58,41.32-10.81"/>
  <path class="cls-2" d="M292.48,511.67c-5.93-5.5-.74-18.26,2.02-28.28,35.37-128.36,114.68-416.14,114.68-416.14"/>
  <path class="cls-2" d="M389.99,47.55c3.21-11.65,21.76-16.68,41.44-11.26,19.68,5.42,33.03,19.25,29.82,30.9-1.93,7-9.41,11.61-19.34,12.99-3.1.44-6.45.55-9.94.33"/>
  <path class="cls-3" d="M438.45,59.73c-2.59-1.7-5.7-3.12-9.16-4.08-11.02-3.04-21.41-.22-23.2,6.3s5.68,14.26,16.7,17.3c1.29.36,2.56.63,3.82.82,4.08.65,9.84.99,22.68-1.69"/>
  <path class="cls-2" d="M243.51,292.74c19.82,18.25,31.61,33.65,28.14,38.06-3.47,4.41-21.21-3.41-43.64-18.36,1.11,26.93-1.44,46.15-7.01,46.82-5.57.67-12.59-17.4-17.87-43.83-18.26,19.81-33.65,31.6-38.07,28.14-4.41-3.47,3.41-21.21,18.36-43.63-26.93,1.1-46.15-1.45-46.82-7.02s17.41-12.58,43.84-17.86c-19.82-18.26-31.61-33.66-28.14-38.07s21.22,3.4,43.64,18.35c-1.11-26.92,1.44-46.14,7.02-46.81s12.59,17.41,17.87,43.83c18.26-19.82,33.66-31.61,38.07-28.14,4.41,3.47-3.41,21.21-18.36,43.64,26.93-1.11,46.15,1.44,46.81,7.01.67,5.57-17.41,12.59-43.83,17.88Z"/>
  <path class="cls-1" d="M260.62,544.49l61.01,41.07c-5.39,8.01-12.32,14.89-20.37,20.22-8.05,5.33-17.07,9.04-26.55,10.89l-14.1-72.19Z"/>
  <path class="cls-1" d="M260.62,544.49l14.1,72.18c-9.48,1.85-19.23,1.82-28.7-.1-9.47-1.92-18.46-5.68-26.47-11.07l41.07-61.01Z"/>
  <path class="cls-1" d="M260.62,544.49l-41.07,61.01c-8.01-5.39-14.88-12.31-20.22-20.36-5.34-8.05-9.04-17.07-10.89-26.55l72.18-14.1Z"/>
  <path class="cls-1" d="M199.61,503.42l61.01,41.07-72.19,14.1c-1.85-9.48-1.81-19.23.1-28.69,1.91-9.47,5.68-18.47,11.08-26.48Z"/>
  <path class="cls-1" d="M185.01,493.59l151.22,101.8c-28.11,41.76-84.75,52.83-126.51,24.71-41.76-28.11-52.82-84.76-24.71-126.52Z"/>
  <path class="cls-4" d="M117.22,898.06l43.49-13.8c30.18-13.3,54.16-37.59,67.09-67.93h0s-7.32-3.79-7.32-3.79c-26.06-13.51-29.59-49.36-6.67-67.7h0c5.87-4.7,9.16-11.91,8.86-19.43l-.36-9.12c-.44-10.89-6.71-20.71-16.41-25.68l-29.06-14.9c-49.02-25.13-83.97-71.18-94.98-125.16h0c-6.43-31.54-9.67-63.64-9.67-95.83h0c0-105.27-14.33-210.06-42.6-311.46h0"/>
  <path class="cls-4" d="M503.23,143.83c-9.36,33.57-17.19,67.51-23.48,101.72"/>
  <path class="cls-4" d="M415.77,898.06l-43.67-13.22c-30.17-13.31-54.16-37.59-67.08-67.94l7.31-3.79c26.06-13.51,29.59-49.36,6.67-67.7-5.62-4.5-8.88-11.31-8.88-18.48,0-.32.01-.63.02-.95l.37-9.12c.43-10.89,6.7-20.71,16.4-25.68l29.06-14.9c46.95-24.06,80.98-67.31,93.45-118.33"/>
  <path class="cls-4" d="M458.56,499.82c1.38-14.79,2.07-29.65,2.07-44.53,0-50.02,3.23-99.92,9.67-149.41"/>
  <path class="cls-4" d="M93.13,262.07c14.03,52.56,15.95,106.91,19.95,161.91,4,50,7.08,98.65,21.08,147.65,8,26,23,48,44,66,4,3,8,6,13,9,4.12,2.62,8.39,4.83,12.69,6.93.02,0,.04.01.06.03,4.28,2.08,8.6,4.07,12.84,6.26"/>
  <path class="cls-4" d="M439.83,262.07c-14.03,52.56-15.95,106.91-19.95,161.91-4,50-7.08,98.65-21.08,147.65-8,26-23,48-44,66-4,3-8,6-13,9-4.12,2.62-8.39,4.83-12.69,6.93-.02,0-.04.01-.06.03-4.28,2.08-8.6,4.07-12.84,6.26"/>
  <path class="cls-4" d="M203.85,653.56s.04.01.06.03c4.15,2.31,8.43,4.41,12.84,6.26,15.39,6.49,32.31,10.07,50.06,10.07s35.96-3.86,51.82-10.82c.01,0,.02,0,.04-.02,4.7-2.06,9.25-4.4,13.64-6.99.04-.02.07-.04.11-.06"/>
  <path class="cls-2" d="M470.3,305.88c39.43-24.53,59.61-25.09,83.2-5.45,35.58,29.63,29.17,112.66-31.65,169.01-30.32,28.09-63.29,30.38-63.29,30.38"/>
  <path class="cls-4" d="M479.75,245.55c22.98.41,67.62-17.91,106.42,16.44,52.19,46.19,54.81,169.28-40.67,249.65-45.59,38.37-76.58,41.54-96.08,46.31"/>
</svg>